#!OML:ASF X:\für Bonn\!DataBase\2005_08_11_Bastian_Final\c3d\Bastian.ASF
:FULLY-SPECIFIED
:DEGREES
77
root 5.27267 16.3734 -16.2015 147.862 -20.0453 -175.785
lowerback 22.9767 -0.26727 6.02964
upperback 13.1739 -1.87124 -0.2116
thorax 1.62672 -1.75171 -3.28719
lowerneck 8.65974 -13.8304 -5.64215
upperneck 0.869987 -19.5771 13.2666
head 0.758728 -10.1727 4.89308
rclavicle -1.18774e-014 3.97569e-016
rhumerus 4.91884 28.9777 -83.1002
rradius 116.236
rwrist 6.09853
rhand -26.2453 5.51755
rfingers 7.12502
rthumb 0.308844 -24.462
lclavicle -1.18774e-014 3.97569e-016
lhumerus -18.7312 -40.404 87.5479
lradius 109.089
lwrist 38.9186
lhand -9.63085 -27.5611
lfingers 7.12502
lthumb 16.3391 1.77062
rfemur -1.32103 -5.60996 19.0495
rtibia 45.2991
rfoot -5.85105 -5.79702
rtoes -4.87396
lfemur -21.0227 1.14687 -8.2481
ltibia 123.925
lfoot 17.4825 -15.8366
ltoes -33.1567
78
root 5.29544 16.3969 -16.3169 145.816 -19.521 -175.909
lowerback 24.7334 0.30364 6.44876
upperback 13.8496 -1.27083 -0.326629
thorax 1.63404 -1.5487 -3.7671
lowerneck 9.10551 -13.9827 -5.77451
upperneck 0.823486 -19.8685 13.943
head 0.783647 -10.3587 5.12677
rclavicle 1.61513e-014 -9.14409e-015
rhumerus 5.6008 28.4434 -82.9411
rradius 115.931
rwrist 6.08013
rhand -25.5472 5.36015
rfingers 7.12502
rthumb 0.983086 -24.6173
lclavicle 1.61513e-014 -9.14409e-015
lhumerus -20.4951 -39.5866 87.1579
lradius 108.031
lwrist 38.4543
lhand -9.54086 -27.6998
lfingers 7.12502
lthumb 16.4257 1.62479
rfemur 1.84421 -5.49115 19.1386
rtibia 44.2762
rfoot -5.92469 -5.53504
rtoes -4.91205
lfemur -23.5787 3.49189 -8.6321
ltibia 126.468
lfoot 17.0186 -15.1341
ltoes -34.9214
79
root 5.31532 16.419 -16.4311 143.774 -18.8481 -176.101
lowerback 26.5531 0.902884 6.89268
upperback 14.5189 -0.646625 -0.404767
thorax 1.65338 -1.34491 -4.24847
lowerneck 9.55276 -14.1101 -6.00777
upperneck 0.73027 -20.1334 14.6831
head 0.810315 -10.5352 5.3945
rclavicle -5.76476e-015 1.15295e-014
rhumerus 6.34565 27.9475 -82.7467
rradius 115.599
rwrist 6.0453
rhand -24.8104 5.24142
rfingers 7.12502
rthumb 1.69471 -24.7316
lclavicle -5.76476e-015 1.15295e-014
lhumerus -22.1874 -38.5355 86.8709
lradius 106.695
lwrist 37.9866
lhand -9.63745 -27.704
lfingers 7.12502
lthumb 16.3328 1.62828
rfemur 5.00789 -5.34444 19.1992
rtibia 43.2624
rfoot -6.01747 -5.13514
rtoes -4.88623
lfemur -26.3652 5.86056 -9.2173
ltibia 128.492
lfoot 16.6581 -14.6542
ltoes -37.9139
80
root 5.33403 16.4349 -16.5452 141.66 -18.0552 -176.407
lowerback 28.4774 1.57202 7.30434
upperback 15.2408 0.0180081 -0.433677
thorax 1.73936 -1.1446 -4.69157
lowerneck 9.89147 -14.2477 -6.25734
upperneck 0.651476 -20.4069 15.3867
head 0.859937 -10.7103 5.64354
rclavicle 2.03754e-014 -1.43125e-014
rhumerus 7.19246 27.4394 -82.3645
rradius 115.262
rwrist 5.90401
rhand -24.1123 5.14123
rfingers 7.12502
rthumb 2.36892 -24.8254
lclavicle 2.03754e-014 -1.43125e-014
lhumerus -23.7642 -37.267 86.5996
lradius 105.145
lwrist 37.5174
lhand -9.78352 -27.6325
lfingers 7.12502
lthumb 16.1921 1.71127
rfemur 8.25032 -5.13443 19.1987
rtibia 42.2707
rfoot -6.09799 -4.64837
rtoes -4.93183
lfemur -29.2239 8.06575 -10.0238
ltibia 129.957
lfoot 15.9837 -14.7058
ltoes -40.0431
81
root 5.34938 16.4444 -16.6612 139.441 -17.1382 -176.831
lowerback 30.5193 2.29875 7.74131
upperback 16.0382 0.701916 -0.424098
thorax 1.92233 -0.960153 -5.13728
lowerneck 10.1411 -14.377 -6.55415
upperneck 0.522486 -20.6628 16.1313
head 0.918522 -10.8747 5.90475
rclavicle -2.19657e-014 3.18055e-015
rhumerus 8.18803 26.8838 -81.7654
rradius 114.936
rwrist 5.6867
rhand -23.4372 5.00236
rfingers 7.12502
rthumb 3.02088 -24.956
lclavicle -2.19657e-014 3.18055e-015
lhumerus -25.0856 -35.882 86.2453
lradius 103.319
lwrist 37.0291
lhand -10.1462 -27.5097
lfingers 7.12502
lthumb 15.8429 1.86215
rfemur 11.6206 -4.81398 19.1497
rtibia 41.294
rfoot -6.17434 -4.12867
rtoes -4.90513
lfemur -32.1492 10.0359 -11.0663
ltibia 130.881
lfoot 15.1807 -15.2175
ltoes -41.7355
82
root 5.3636 16.4512 -16.7789 137.266 -16.1156 -177.357
lowerback 32.9103 3.04769 8.21312
upperback 16.7194 1.46864 -0.583485
thorax 1.89358 -0.762723 -5.40004
lowerneck 10.4858 -14.4979 -6.92118
upperneck 0.32851 -20.9106 16.9142
head 0.956303 -11.0426 6.19779
rclavicle 5.40694e-014 -4.29375e-014
rhumerus 9.1408 26.3088 -80.9905
rradius 114.661
rwrist 5.3723
rhand -22.8585 4.84101
rfingers 7.12502
rthumb 3.57973 -25.1087
lclavicle 5.40694e-014 -4.29375e-014
lhumerus -26.2117 -34.439 85.9009
lradius 101.19
lwrist 36.538
lhand -10.6351 -27.4591
lfingers 7.12502
lthumb 15.372 1.94947
rfemur 14.9248 -4.38726 19.0938
rtibia 40.3568
rfoot -6.24991 -3.54623
rtoes -4.70328
lfemur -35.4123 11.718 -12.287
ltibia 131.299
lfoot 14.8354 -15.8714
ltoes -42.261
83
root 5.37617 16.4629 -16.8966 135.227 -15.0116 -177.939
lowerback 34.8537 3.83973 8.65629
upperback 17.4179 2.22236 -0.548216
thorax 2.1291 -0.560075 -5.80523
lowerneck 11.0032 -14.5675 -7.27342
upperneck 0.0926262 -21.0909 17.6864
head 0.946406 -11.1887 6.50931
rclavicle 6.99722e-014 5.56597e-015
rhumerus 9.94684 25.7422 -80.201
rradius 114.42
rwrist 5.1353
rhand -22.2474 4.67553
rfingers 7.12502
rthumb 4.16986 -25.2634
lclavicle 6.99722e-014 5.56597e-015
lhumerus -27.2968 -32.865 85.5401
lradius 98.7974
lwrist 35.96
lhand -11.1815 -27.5473
lfingers 7.12502
lthumb 14.8457 1.90087
rfemur 18.0478 -4.04173 18.9598
rtibia 39.4751
rfoot -6.35484 -2.8132
rtoes -4.35591
lfemur -39.1333 13.0135 -13.6474
ltibia 131.197
lfoot 14.7592 -16.6115
ltoes -41.7182
84
root 5.38749 16.4768 -17.0156 133.418 -13.8671 -178.559
lowerback 36.5289 4.62152 9.06488
upperback 18.072 2.95041 -0.523397
thorax 2.44824 -0.362178 -6.2069
lowerneck 11.5951 -14.5821 -7.60347
upperneck -0.200909 -21.1849 18.4318
head 0.893377 -11.2991 6.82755
rclavicle 6.16232e-015 3.02153e-014
rhumerus 10.7376 25.2373 -79.3933
rradius 114.235
rwrist 4.88558
rhand -21.5783 4.51026
rfingers 7.12502
rthumb 4.81594 -25.415
lclavicle 6.16232e-015 3.02153e-014
lhumerus -28.3558 -31.1615 85.0734
lradius 96.298
lwrist 35.4022
lhand -11.8392 -27.7884
lfingers 7.12502
lthumb 14.2119 1.7054
rfemur 20.8538 -3.72917 18.7772
rtibia 38.7071
rfoot -6.49918 -1.94999
rtoes -3.82951
lfemur -43.1948 13.8251 -15.0053
ltibia 130.49
lfoot 14.534 -17.6573
ltoes -41.8846
85
root 5.39764 16.4858 -17.1344 131.949 -12.6827 -179.189
lowerback 37.8417 5.38226 9.49704
upperback 18.6901 3.66438 -0.555516
thorax 2.88515 -0.143304 -6.68363
lowerneck 12.0405 -14.5889 -7.80789
upperneck -0.40022 -21.2638 19.1241
head 0.87132 -11.3952 7.09966
rclavicle -1.03368e-014 -9.14409e-014
rhumerus 11.5342 24.7066 -78.6996
rradius 114.127
rwrist 4.71389
rhand -20.7955 4.34311
rfingers 7.12502
rthumb 5.57177 -25.5636
lclavicle -1.03368e-014 -9.14409e-014
lhumerus -29.3097 -29.4567 84.4305
lradius 93.7929
lwrist 34.8521
lhand -12.6339 -28.1135
lfingers 7.12502
lthumb 13.4461 1.4325
rfemur 23.1936 -3.10858 18.8845
rtibia 38.0774
rfoot -6.62884 -1.45488
rtoes -3.09759
lfemur -47.5409 14.1682 -16.217
ltibia 129.154
lfoot 14.5941 -18.6342
ltoes -42.2155
86
root 5.40627 16.4881 -17.2505 130.811 -11.4702 -179.848
lowerback 38.8842 6.13114 9.79044
upperback 19.2351 4.33697 -0.606402
thorax 3.33036 0.063439 -7.09874
lowerneck 12.3941 -14.5452 -7.92033
upperneck -0.588282 -21.2478 19.6984
head 0.831641 -11.4371 7.32457
rclavicle 3.99557e-014 1.11319e-014
rhumerus 12.4016 24.3419 -78.0928
rradius 114.022
rwrist 4.64215
rhand -19.9118 4.17083
rfingers 7.12502
rthumb 6.42492 -25.7117
lclavicle 3.99557e-014 1.11319e-014
lhumerus -30.2244 -27.5607 83.7193
lradius 91.3022
lwrist 34.2921
lhand -13.5133 -28.5075
lfingers 7.12502
lthumb 12.5984 1.09265
rfemur 24.9677 -2.17404 19.29
rtibia 37.8436
rfoot -6.88928 -1.36213
rtoes -2.1738
lfemur -52.0196 14.1914 -17.2389
ltibia 127.248
lfoot 14.8195 -19.3284
ltoes -41.885
87
root 5.41294 16.487 -17.3641 129.833 -10.2538 -180.508
lowerback 39.882 6.8538 10.0967
upperback 19.7073 4.99584 -0.695111
thorax 3.73 0.273504 -7.55823
lowerneck 12.5313 -14.5385 -7.87932
upperneck -0.622161 -21.2676 20.0966
head 0.841354 -11.4762 7.44953
rclavicle -1.03964e-013 7.95139e-015
rhumerus 13.2099 23.9918 -77.59
rradius 114.013
rwrist 4.67804
rhand -19.0188 4.01422
rfingers 7.12502
rthumb 7.287 -25.8403
lclavicle -1.03964e-013 7.95139e-015
lhumerus -31.1508 -25.7008 83.0209
lradius 88.8569
lwrist 33.6521
lhand -14.4311 -28.946
lfingers 7.12502
lthumb 11.7134 0.706516
rfemur 26.4972 -1.19411 19.7866
rtibia 37.7177
rfoot -7.19755 -1.35242
rtoes -1.31021
lfemur -56.4008 13.926 -18.0268
ltibia 124.687
lfoot 15.0205 -19.7141
ltoes -40.9323
88
root 5.41229 16.4336 -17.4978 129.003 -9.09014 -181.187
lowerback 40.7839 7.55141 10.3677
upperback 20.1326 5.62229 -0.81151
thorax 4.1159 0.475482 -8.02117
lowerneck 12.5733 -14.536 -7.86719
upperneck -0.578265 -21.3003 20.4351
head 0.88748 -11.5112 7.54706
rclavicle 9.74045e-015 -2.06736e-014
rhumerus 13.9198 23.6426 -77.1941
rradius 114.089
rwrist 4.78093
rhand -18.1777 3.91671
rfingers 7.12502
rthumb 8.09885 -25.9081
lclavicle 9.74045e-015 -2.06736e-014
lhumerus -32.022 -23.8556 82.3904
lradius 86.3896
lwrist 32.9578
lhand -15.3648 -29.4927
lfingers 7.12502
lthumb 10.8129 0.208957
rfemur 27.8108 -0.16826 20.3247
rtibia 37.6933
rfoot -7.50169 -1.44103
rtoes -0.378293
lfemur -61.224 13.3715 -18.7189
ltibia 121.814
lfoot 14.8887 -19.709
ltoes -43.1132
89
root 5.41534 16.4443 -17.6131 128.341 -7.96574 -181.863
lowerback 41.4973 8.2178 10.6363
upperback 20.5223 6.22703 -0.948301
thorax 4.5299 0.686804 -8.4973
lowerneck 12.5866 -14.5213 -8.01124
upperneck -0.429165 -21.3543 20.7728
head 0.988597 -11.5494 7.65493
rclavicle -7.71285e-014 -7.95139e-015
rhumerus 14.4664 23.2763 -76.8216
rradius 114.367
rwrist 4.92959
rhand -17.4495 3.80983
rfingers 7.12502
rthumb 8.80155 -25.9866
lclavicle -7.71285e-014 -7.95139e-015
lhumerus -32.938 -22.1217 81.825
lradius 83.9822
lwrist 32.1759
lhand -16.2278 -30.0878
lfingers 7.12502
lthumb 9.9804 -0.344461
rfemur 29.1215 0.886088 20.9127
rtibia 37.3002
rfoot -7.60337 -1.60621
rtoes 0.642901
lfemur -64.9697 12.7487 -19.0287
ltibia 117.823
lfoot 14.9373 -19.0663
ltoes -43.3066
